<?xml version="1.0" encoding="iso-8859-1"?>
<!-- Generator: Adobe Illustrator 17.0.0, SVG Export Plug-In . SVG Version: 6.00 Build 0)  -->
<!DOCTYPE svg PUBLIC "-//W3C//DTD SVG 1.1//EN" "http://www.w3.org/Graphics/SVG/1.1/DTD/svg11.dtd">
<svg version="1.1" id="Capa_1" xmlns="http://www.w3.org/2000/svg" xmlns:xlink="http://www.w3.org/1999/xlink" x="0px" y="0px"
	 width="64px" height="64px" viewBox="0 0 64 64" style="enable-background:new 0 0 64 64;" xml:space="preserve">
<g>
	<path d="M43.669,44.523c-0.415-2.077-1.329-11.838-3.489-15.078c-0.478-0.717-0.654-1.677-0.656-2.777
		c0.001-0.008,0.001-0.017,0.002-0.025c0.068-1.001,0.178-2.067,0.252-2.635c0.013-0.103,0.026-0.197,0.036-0.263
		c0.056-0.335,0.127-0.667,0.198-1c0.002,0,0.004,0,0.006,0c0.673-3.237,1.781-6.818,1.781-9.499c0-4.943-2.534-6.397-2.534-6.397
		c0.872-3.697,1.495-5.691,1.495-5.691l-0.748-0.291c-0.498,0.498-1.661,5.94-1.661,5.94c-2.908,2.908-7.477,2.409-7.477,2.409
		s-4.569,0.498-7.477-2.409c0,0-1.163-5.441-1.661-5.94L20.99,1.159c0,0,0.623,1.994,1.495,5.691c0,0-2.534,1.454-2.534,6.397
		c0,2.572,1.022,5.974,1.699,9.104c-0.004,0.041,0,0.087,0.016,0.136c0.01,0.03,0.022,0.074,0.034,0.12
		c0.008,0.029,0.016,0.061,0.024,0.095c0.105,0.425,0.255,1.186,0.279,1.211c0.049,0.298,0.103,0.84,0.151,1.393
		c0.021,0.192,0.034,0.379,0.047,0.565c0.021,0.266,0.04,0.514,0.055,0.716c-0.008,0-0.016,0-0.024,0
		c0.008,1.137-0.17,2.123-0.661,2.859c-2.16,3.24-3.074,13.001-3.489,15.078c-0.415,2.077-1.412,9.72-1.911,11.963
		c-0.498,2.243-0.997,5.317-0.997,5.317s2.16,0.665,4.154,0.498c0,0-0.291,0.872,2.243,0.623c2.534-0.249,5.068-0.291,6.812-0.208
		s0.526,0.415,2.492,0.415c1.966,0,0.748-0.332,2.492-0.415s4.278-0.042,6.812,0.208c2.534,0.249,2.243-0.623,2.243-0.623
		c1.994,0.166,4.154-0.498,4.154-0.498s-0.498-3.074-0.997-5.317C45.082,54.243,44.085,46.6,43.669,44.523z M39.237,23.247
		c-0.196,0.267-0.368,0.687-0.142,0.87c-0.058,0.399-0.092,0.802-0.133,1.203c-0.226-0.258-0.946-0.022-0.946-0.022
		c-0.537-0.234,0.472,1.156,0.879,0.627c-0.018,0.224-0.024,0.449-0.036,0.674c-0.492-0.036-0.984-0.07-1.478-0.096
		c-0.074-0.26-0.239-0.516-0.239-0.516c0.056-0.376-0.374,0.055-0.519,0.474c-1.062-0.044-2.13-0.064-3.2-0.07
		c-0.221-0.266-0.95-0.028-0.95-0.028c-0.109-0.048-0.154-0.028-0.153,0.03c-0.037,0-0.073,0-0.11,0
		c0.035-0.07,0.058-0.146,0.058-0.23c0-0.291-0.236-0.526-0.526-0.526s-0.526,0.236-0.526,0.526c0,0.084,0.024,0.161,0.059,0.232
		c-1.403,0.014-2.807,0.045-4.207,0.08c-0.071-0.151-0.144-0.267-0.144-0.267c0.047-0.318-0.254-0.059-0.436,0.282
		c-0.239,0.006-0.477,0.012-0.716,0.018c0.242-0.196,0.387-0.691,0.387-0.691c0.534-0.334-1.494-0.255-0.936,0.523
		c0.062,0.086,0.12,0.138,0.177,0.177c-0.196,0.005-0.392,0.009-0.588,0.013c0.099-0.101,0.125-0.24-0.001-0.423
		c-0.471-0.686-0.826,0.325-0.865,0.442c-0.341,0.008-0.683,0.016-1.023,0.022c-0.006-0.094-0.012-0.188-0.018-0.282
		c0.253-0.04,1.089-1.064,0.291-1.225c-0.173-0.035-0.294-0.023-0.379,0.019c-0.039-0.446-0.092-0.89-0.166-1.331
		c0.129-0.216,0.203-0.467,0.203-0.467c0.232-0.145-0.018-0.212-0.33-0.178c-0.039-0.17-0.087-0.338-0.135-0.506
		c0.257-0.003,0.516-0.009,0.774-0.013c-0.025,0.061-0.04,0.128-0.04,0.198c0,0.291,0.236,0.526,0.526,0.526
		s0.526-0.236,0.526-0.526c0-0.077-0.018-0.149-0.048-0.215c1.198-0.021,2.398-0.044,3.602-0.066
		c-0.104,0.112-0.126,0.263,0.013,0.457c0.494,0.689,0.846-0.25,0.92-0.474c0.553-0.009,1.106-0.013,1.66-0.019
		c0.258,0.326,0.762,0.682,0.956,0.149c0.023-0.064,0.022-0.108,0.03-0.16c0.811-0.005,1.621,0.002,2.431,0.01
		c-0.069,0.089-0.117,0.195-0.117,0.317c0,0.291,0.236,0.526,0.526,0.526c0.291,0,0.526-0.236,0.526-0.526
		c0-0.119-0.047-0.224-0.113-0.312c1.329,0.023,2.652,0.084,3.971,0.165c-0.402,0.052-0.879,0.268-0.572,0.696
		c0.557,0.778,0.936-0.523,0.936-0.523c0.102-0.064,0.11-0.112,0.062-0.144c0.118,0.008,0.237,0.016,0.355,0.025
		c0.011,0.007,0.017,0.02,0.028,0.026C39.305,22.897,39.269,23.072,39.237,23.247z"/>
	<path d="M32.3,25.638c-0.498,0.298,1.371,0.263,0.872-0.464C32.674,24.447,32.3,25.638,32.3,25.638z"/>
	<path d="M30.003,25.264c-0.343,0.812,0.861,0.484,0.861,0.484C31.383,26.008,30.346,24.452,30.003,25.264z"/>
	<path d="M31.67,24.131c-0.983-0.198-0.344,1.07-0.344,1.07C31.154,25.839,32.653,24.329,31.67,24.131z"/>
	<path d="M35.84,23.466c0.327-0.899-0.96-0.477-0.96-0.477C34.302,22.736,35.513,24.365,35.84,23.466z"/>
	<path d="M33.795,24.73c0.953,0.081,0.21-1.052,0.21-1.052C34.097,23.054,32.842,24.649,33.795,24.73z"/>
	<path d="M32.417,23.809c0.557,0.778,0.936-0.523,0.936-0.523C33.887,22.952,31.859,23.032,32.417,23.809z"/>
	<circle cx="26.954" cy="25.32" r="0.526"/>
	<path d="M28.498,24.33c-0.498-0.727-0.872,0.464-0.872,0.464C27.127,25.091,28.996,25.056,28.498,24.33z"/>
	<path d="M27.798,25.52c-0.578-0.252,0.633,1.376,0.96,0.477C29.085,25.098,27.798,25.52,27.798,25.52z"/>
	<path d="M25.216,24.419c-0.343,0.812,0.861,0.484,0.861,0.484C26.596,25.163,25.559,23.608,25.216,24.419z"/>
	<path d="M26.882,23.286c-0.983-0.198-0.344,1.07-0.344,1.07C26.367,24.995,27.866,23.484,26.882,23.286z"/>
	<circle cx="37.172" cy="25.099" r="0.526"/>
	<path d="M37.844,24.573c-0.498,0.298,1.371,0.263,0.872-0.464C38.217,23.382,37.844,24.573,37.844,24.573z"/>
	<path d="M35.44,26.12c0.557,0.778,0.936-0.523,0.936-0.523C36.911,25.262,34.883,25.342,35.44,26.12z"/>
	<path d="M35.434,24.199c-0.343,0.812,0.861,0.484,0.861,0.484C36.814,24.942,35.777,23.387,35.434,24.199z"/>
	<path d="M37.101,23.065c-0.983-0.198-0.344,1.07-0.344,1.07C36.585,24.774,38.084,23.263,37.101,23.065z"/>
	<path d="M29.233,23.885c0.953,0.081,0.21-1.052,0.21-1.052C29.535,22.21,28.28,23.804,29.233,23.885z"/>
	<path d="M25.453,23.466c0.327-0.899-0.961-0.477-0.961-0.477C23.915,22.736,25.126,24.365,25.453,23.466z"/>
	<path d="M23.408,24.73c0.953,0.081,0.21-1.052,0.21-1.052C23.71,23.054,22.455,24.649,23.408,24.73z"/>
</g>
</svg>
